<svg xmlns="http://www.w3.org/2000/svg" width="11" height="10" viewBox="0 0 11 10">
  <metadata><?xpacket begin="﻿" id="W5M0MpCehiHzreSzNTczkc9d"?>
<x:xmpmeta xmlns:x="adobe:ns:meta/" x:xmptk="Adobe XMP Core 5.6-c140 79.160451, 2017/05/06-01:08:21        ">
   <rdf:RDF xmlns:rdf="http://www.w3.org/1999/02/22-rdf-syntax-ns#">
      <rdf:Description rdf:about=""/>
   </rdf:RDF>
</x:xmpmeta>
                                                                                                    
                                                                                                    
                                                                                                    
                                                                                                    
                                                                                                    
                                                                                                    
                                                                                                    
                                                                                                    
                                                                                                    
                                                                                                    
                                                                                                    
                                                                                                    
                                                                                                    
                                                                                                    
                                                                                                    
                                                                                                    
                                                                                                    
                                                                                                    
                                                                                                    
                                                                                                    
                           
<?xpacket end="w"?></metadata>
<defs>
    <style>
      .cls-1 {
        fill: #0a1e75;
        fill-rule: evenodd;
      }
    </style>
  </defs>
  <path id="Menu_24x24_" data-name="Menu (24x24)" class="cls-1" d="M409,33.635a0.356,0.356,0,0,0,.343.366h10.311A0.356,0.356,0,0,0,420,33.635V32.006a0.364,0.364,0,0,0-.343-0.381H409.344a0.364,0.364,0,0,0-.343.381v1.629Zm0-3.81a0.356,0.356,0,0,0,.343.366h10.311A0.356,0.356,0,0,0,420,29.825V28.2a0.364,0.364,0,0,0-.343-0.381H409.344A0.364,0.364,0,0,0,409,28.2v1.629Zm0-3.809a0.356,0.356,0,0,0,.343.366h10.311A0.356,0.356,0,0,0,420,26.015V24.387a0.365,0.365,0,0,0-.343-0.381H409.344a0.365,0.365,0,0,0-.343.381v1.629Z" transform="translate(-409 -24)"/>
</svg>
