<svg xmlns="http://www.w3.org/2000/svg" width="17.97" height="18" viewBox="0 0 17.97 18">
  <metadata><?xpacket begin="﻿" id="W5M0MpCehiHzreSzNTczkc9d"?>
<x:xmpmeta xmlns:x="adobe:ns:meta/" x:xmptk="Adobe XMP Core 5.6-c140 79.160451, 2017/05/06-01:08:21        ">
   <rdf:RDF xmlns:rdf="http://www.w3.org/1999/02/22-rdf-syntax-ns#">
      <rdf:Description rdf:about=""/>
   </rdf:RDF>
</x:xmpmeta>
                                                                                                    
                                                                                                    
                                                                                                    
                                                                                                    
                                                                                                    
                                                                                                    
                                                                                                    
                                                                                                    
                                                                                                    
                                                                                                    
                                                                                                    
                                                                                                    
                                                                                                    
                                                                                                    
                                                                                                    
                                                                                                    
                                                                                                    
                                                                                                    
                                                                                                    
                                                                                                    
                           
<?xpacket end="w"?></metadata>
<defs>
    <style>
      .cls-1 {
        fill: #0a1e75;
        fill-rule: evenodd;
      }
    </style>
  </defs>
  <path id="Searchicon" class="cls-1" d="M1259.3,39a1.273,1.273,0,0,1-.91-0.371l-3.9-3.9c-0.02-.016-0.03-0.032-0.05-0.048l-0.4-.442-0.52.278a7.231,7.231,0,0,1-3.35.828,7.17,7.17,0,1,1,5.07-12.24,7.158,7.158,0,0,1,1.27,8.419l-0.28.527,0.44,0.4a0.2,0.2,0,0,1,.05.045l3.91,3.9a1.292,1.292,0,0,1,0,1.805l-0.43.429a1.266,1.266,0,0,1-.9.371h0Zm-9.13-15.629a4.8,4.8,0,1,0,3.39,1.406A4.774,4.774,0,0,0,1250.17,23.371Z" transform="translate(-1243.03 -21)"/>
</svg>
