<svg xmlns="http://www.w3.org/2000/svg" width="13" height="14" viewBox="0 0 13 14">
  <metadata><?xpacket begin="﻿" id="W5M0MpCehiHzreSzNTczkc9d"?>
<x:xmpmeta xmlns:x="adobe:ns:meta/" x:xmptk="Adobe XMP Core 5.6-c140 79.160451, 2017/05/06-01:08:21        ">
   <rdf:RDF xmlns:rdf="http://www.w3.org/1999/02/22-rdf-syntax-ns#">
      <rdf:Description rdf:about=""/>
   </rdf:RDF>
</x:xmpmeta>
                                                                                                    
                                                                                                    
                                                                                                    
                                                                                                    
                                                                                                    
                                                                                                    
                                                                                                    
                                                                                                    
                                                                                                    
                                                                                                    
                                                                                                    
                                                                                                    
                                                                                                    
                                                                                                    
                                                                                                    
                                                                                                    
                                                                                                    
                                                                                                    
                                                                                                    
                                                                                                    
                           
<?xpacket end="w"?></metadata>
<defs>
    <style>
      .cls-1 {
        fill: #0a1e75;
        fill-rule: evenodd;
      }
    </style>
  </defs>
  <path id="User_24x24_" data-name="User (24x24)" class="cls-1" d="M563.381,33.249h-0.619a0.6,0.6,0,0,1-.619-0.583V31.208a0.31,0.31,0,0,0-.619,0l0,2.505c0,0.356-1.244,1.286-4.019,1.286s-4.019-.931-4.019-1.286l0-2.505a0.31,0.31,0,0,0-.619,0v1.457a0.6,0.6,0,0,1-.619.583h-0.619A0.6,0.6,0,0,1,551,32.666V30.188c0-1.7,1.79-3.15,4.29-3.7a4.106,4.106,0,0,0,4.42,0c2.5,0.548,4.29,1.994,4.29,3.7v2.478A0.6,0.6,0,0,1,563.381,33.249Zm-5.895-7a2.63,2.63,0,1,1,2.785-2.625A2.71,2.71,0,0,1,557.486,26.25Z" transform="translate(-551 -21)"/>
</svg>
