<svg id="Layer_1" data-name="Layer 1" xmlns="http://www.w3.org/2000/svg" viewBox="0 0 2125.98 2834.65"><defs><style>.cls-1{fill:#575756;}.cls-2{fill:#23398b;}.cls-3{fill:#009e9b;}</style></defs><title>Artboard 1</title><g id="Landoretti"><path class="cls-1" d="M447.73,2186.37v167H549.55v14.77H430.42V2186.37Z"/><path class="cls-1" d="M567.36,2257.14a37.66,37.66,0,0,1,11.08-13.75,46.93,46.93,0,0,1,16.42-7.89,79.83,79.83,0,0,1,20.87-2.54,92.24,92.24,0,0,1,17.31,1.65,42,42,0,0,1,15.53,6.23,34,34,0,0,1,11.2,12.87q4.32,8.26,4.33,21.5V2345q0,9.66,9.42,9.67a12.33,12.33,0,0,0,5.08-1v13.5c-1.86.33-3.52.59-5,.76a48.39,48.39,0,0,1-5.47.25,24.11,24.11,0,0,1-9.8-1.66,13.11,13.11,0,0,1-5.73-4.7,17.63,17.63,0,0,1-2.67-7.25,63.09,63.09,0,0,1-.64-9.3h-.5a108.22,108.22,0,0,1-8.79,11.33,43.88,43.88,0,0,1-9.92,8.27,46.33,46.33,0,0,1-12.48,5.09,68.18,68.18,0,0,1-16.67,1.79,66.4,66.4,0,0,1-17.19-2.17,38.48,38.48,0,0,1-14-6.87,32.89,32.89,0,0,1-9.42-12,39.85,39.85,0,0,1-3.44-17.19q0-13.76,6.11-21.51a38.42,38.42,0,0,1,16.16-11.83,92,92,0,0,1,22.66-5.73q12.6-1.65,25.59-3.18c3.39-.35,6.36-.77,8.91-1.28a15.48,15.48,0,0,0,6.36-2.67,12.36,12.36,0,0,0,3.94-5.22,22.55,22.55,0,0,0,1.4-8.66c0-5.42-.89-9.88-2.67-13.35a21,21,0,0,0-7.39-8.27,29.5,29.5,0,0,0-10.94-4.21,74.37,74.37,0,0,0-13.36-1.15q-15.29,0-25,7.27T578.57,2277h-16A53.44,53.44,0,0,1,567.36,2257.14Zm80.19,39.19c-1,1.88-3,3.23-5.85,4.08a58,58,0,0,1-7.64,1.78q-10.18,1.79-21,3.18a115.37,115.37,0,0,0-19.73,4.2,38.79,38.79,0,0,0-14.64,8q-5.73,5.22-5.72,14.89a23.27,23.27,0,0,0,2.42,10.82,26.15,26.15,0,0,0,6.49,8.15,28.27,28.27,0,0,0,9.42,5.21,34.31,34.31,0,0,0,10.94,1.79,55.29,55.29,0,0,0,17.56-2.8,43.28,43.28,0,0,0,14.64-8.15,38.78,38.78,0,0,0,13.62-30.29v-20.88Z"/><path class="cls-1" d="M712,2236.77v22.65h.51a38.49,38.49,0,0,1,16.29-19.21,47.83,47.83,0,0,1,25.71-7.25q13.74,0,23,3.56a36.45,36.45,0,0,1,14.89,10.05,37.49,37.49,0,0,1,7.89,15.91,89.46,89.46,0,0,1,2.3,21.13v84.51h-16v-82A76.5,76.5,0,0,0,785,2270.5a33.12,33.12,0,0,0-5.35-12.6,25.87,25.87,0,0,0-10.31-8.4q-6.48-3-16.16-3.06a40.93,40.93,0,0,0-17.19,3.44,37.1,37.1,0,0,0-12.72,9.42,43.34,43.34,0,0,0-8.15,14.26A58.05,58.05,0,0,0,712,2291.5v76.62h-16V2236.77Z"/><path class="cls-1" d="M933.66,2368.12v-24.95h-.5a38,38,0,0,1-7.51,11.71,48.85,48.85,0,0,1-11.33,9,58.52,58.52,0,0,1-13.62,5.72,53,53,0,0,1-14.39,2.05q-15,0-26.08-5.48a52.25,52.25,0,0,1-18.46-15,64.14,64.14,0,0,1-10.95-22.14,101.19,101.19,0,0,1,0-53.21,64.09,64.09,0,0,1,10.95-22.13,53.5,53.5,0,0,1,18.46-15.16q11.07-5.6,26.08-5.59a58,58,0,0,1,14.39,1.78,48.15,48.15,0,0,1,13.11,5.47,45.78,45.78,0,0,1,10.81,9,38,38,0,0,1,7.26,12.46h.51v-75.34h16v181.75Zm-87.95-45.44a56.05,56.05,0,0,0,7.64,18,42.09,42.09,0,0,0,13.36,12.86q8.16,5,19.6,5,12.74,0,21.52-5a42.78,42.78,0,0,0,14.25-12.86,52.92,52.92,0,0,0,7.89-18,85.81,85.81,0,0,0,0-40.47,52.87,52.87,0,0,0-7.89-17.94,42.57,42.57,0,0,0-14.25-12.86q-8.79-5-21.52-5-11.44,0-19.6,5a41.88,41.88,0,0,0-13.36,12.86,56,56,0,0,0-7.64,17.94,86.15,86.15,0,0,0,0,40.47Z"/><path class="cls-1" d="M1061.06,2238.55a58.14,58.14,0,0,1,19.47,15,65.13,65.13,0,0,1,12,22,90.63,90.63,0,0,1,0,53.71,65,65,0,0,1-12,22,56.55,56.55,0,0,1-19.47,14.89q-11.58,5.48-26.6,5.48t-26.6-5.48a56.46,56.46,0,0,1-19.47-14.89,64.86,64.86,0,0,1-12-22,90.63,90.63,0,0,1,0-53.71,65,65,0,0,1,12-22,58,58,0,0,1,19.47-15q11.58-5.6,26.6-5.59T1061.06,2238.55Zm-46.71,12.73A44.24,44.24,0,0,0,1000,2264a57.9,57.9,0,0,0-8.66,17.94,73.35,73.35,0,0,0,0,41,57.85,57.85,0,0,0,8.66,18,44.13,44.13,0,0,0,14.38,12.73,44.2,44.2,0,0,0,40.22,0,44.13,44.13,0,0,0,14.38-12.73,57.6,57.6,0,0,0,8.65-18,73.11,73.11,0,0,0,0-41A57.66,57.66,0,0,0,1069,2264a44.24,44.24,0,0,0-14.38-12.73,44.2,44.2,0,0,0-40.22,0Z"/><path class="cls-1" d="M1135.26,2236.77v30.81h.51q6.11-16,19-24.7t30.66-7.88v16a48.58,48.58,0,0,0-19.85,2.93,43.92,43.92,0,0,0-25.46,25,50.73,50.73,0,0,0-3.56,19.22v70h-16V2236.77Z"/><path class="cls-1" d="M1207.93,2324.72a49.17,49.17,0,0,0,7.77,16.67,44.26,44.26,0,0,0,13.49,12.22q8.14,4.84,19.6,4.84,17.57,0,27.49-9.17t13.74-24.44h16q-5.08,22.41-18.71,34.62t-38.56,12.23q-15.54,0-26.86-5.48a49.4,49.4,0,0,1-18.45-15,65.29,65.29,0,0,1-10.57-22.14,100.79,100.79,0,0,1-3.43-26.6,95.41,95.41,0,0,1,3.43-25.46,68.29,68.29,0,0,1,10.57-22.27,52.89,52.89,0,0,1,18.45-15.78q11.33-6,26.86-6,15.78,0,27,6.36A53.81,53.81,0,0,1,1294,2256a69,69,0,0,1,10,23.68,103.69,103.69,0,0,1,2.55,27.11H1205.51A71.26,71.26,0,0,0,1207.93,2324.72Zm79.42-49a48,48,0,0,0-8.27-14.88,41.07,41.07,0,0,0-13-10.44,37.16,37.16,0,0,0-17.31-3.95,37.75,37.75,0,0,0-17.57,3.95,41.18,41.18,0,0,0-13,10.44,51.86,51.86,0,0,0-8.52,15,74,74,0,0,0-4.21,17.44h85A57.78,57.78,0,0,0,1287.35,2275.71Z"/><path class="cls-1" d="M1380.39,2236.77v13.49h-26.73v88.58q0,7.9,2.17,12.35t10.82,5a121.67,121.67,0,0,0,13.74-.76v13.49c-2.38,0-4.75.08-7.13.26s-4.75.26-7.12.26q-16,0-22.4-6.24t-6.11-23v-89.86h-22.91v-13.49h22.91v-39.45h16v39.45Z"/><path class="cls-1" d="M1455.74,2236.77v13.49H1429v88.58q0,7.9,2.16,12.35t10.82,5a122,122,0,0,0,13.75-.76v13.49c-2.38,0-4.76.08-7.13.26s-4.76.26-7.14.26q-16,0-22.39-6.24t-6.11-23v-89.86h-22.91v-13.49H1413v-39.45h16v39.45Z"/><path class="cls-1" d="M1495.19,2186.37v25.71h-16v-25.71Zm0,50.4v131.35h-16V2236.77Z"/></g><g id="art"><path class="cls-2" d="M482.3,2410.28h24.81l51.28,133.16h-25l-12.49-35.25H467.76l-12.5,35.25H431.2Zm-8.2,80.19h40.65l-19.95-57.25h-.56Z"/><path class="cls-2" d="M571.08,2410.28h63.59q22,0,33,9.51t11,26.48q0,9.51-2.8,15.76a34.05,34.05,0,0,1-6.53,10.07,25.28,25.28,0,0,1-7.37,5.5,57.4,57.4,0,0,1-5.31,2.24v.38a24,24,0,0,1,6.43,1.86,19.18,19.18,0,0,1,6.44,4.76,26.28,26.28,0,0,1,4.94,8.48,37.43,37.43,0,0,1,2,13.06,118.2,118.2,0,0,0,1.77,21.35q1.77,9.61,5.5,13.71h-25a21.62,21.62,0,0,1-3.07-9.51c-.32-3.48-.47-6.84-.47-10.07a96.66,96.66,0,0,0-1.12-15.76,27.78,27.78,0,0,0-4.1-11,17.45,17.45,0,0,0-8.12-6.43,35.75,35.75,0,0,0-13.15-2H594.39v54.83H571.08Zm23.31,60.61h38.23q11.19,0,17-5.31t5.78-15.95a24.77,24.77,0,0,0-1.86-10.35,15.11,15.11,0,0,0-5.13-6.25,18.72,18.72,0,0,0-7.46-3,49.24,49.24,0,0,0-8.67-.75H594.39Z"/><path class="cls-2" d="M686.33,2410.28h107.8v20.14H751.79v113H728.48v-113H686.33Z"/></g><path id="L" class="cls-3" d="M530.8,1849.36v-25.52q75.9-8,98.4-27.08c11.7-9.9,21.39-36.51,21.39-65.3V468.2H410.45V2087.74h1082V1849.36H530.8Z"/><path id="canvas" class="cls-2" d="M650.59,285.71V468.2h367.56v25.52q-75.92,4-101.75,24.85c-15.82,12.74-25.67,40.56-25.67,78.35V1795h371.44q143.44-3.64,199-29.6,64.56-30.23,125.08-154.49h35L1554,1849.36h156.38V285.71Z"/></svg>